<?xml version="1.0" encoding="UTF-8" standalone="no"?>
<!DOCTYPE svg PUBLIC "-//W3C//DTD SVG 1.1//EN" "http://www.w3.org/Graphics/SVG/1.1/DTD/svg11.dtd">
<svg width="100%" height="100%" viewBox="0 0 800 600" version="1.1" xmlns="http://www.w3.org/2000/svg" xmlns:xlink="http://www.w3.org/1999/xlink" xml:space="preserve" xmlns:serif="http://www.serif.com/" style="fill-rule:evenodd;clip-rule:evenodd;stroke-linejoin:round;stroke-miterlimit:1.41421;">
    <rect id="Plan-de-travail1" serif:id="Plan de travail1" x="0" y="0" width="800" height="600" style="fill:none;"/>
    <clipPath id="_clip1">
        <rect id="Plan-de-travail11" serif:id="Plan de travail1" x="0" y="0" width="800" height="600"/>
    </clipPath>
    <g clip-path="url(#_clip1)">
        <g transform="matrix(3.34573,0,0,1,-1175.01,315.167)">
            <path d="M373.733,184.61L373.733,173.223L579.538,173.223L579.538,162.65L584.4,178.917L579.538,195.183L579.538,184.61L373.733,184.61Z" style="fill:rgb(238,232,213);"/>
        </g>
        <g transform="matrix(1.33994e-16,-2.18829,1,6.12323e-17,-97.5166,1317.92)">
            <path d="M373.733,184.61L373.733,173.223L576.966,173.223L576.966,162.65L584.4,178.917L576.966,195.183L576.966,184.61L373.733,184.61Z" style="fill:rgb(238,232,213);"/>
        </g>
        <g transform="matrix(1,0,0,1,-30.8333,0)">
            <text x="607.27px" y="525.909px" style="font-family:'ConvectionMedium', 'Convection Medium', sans-serif;font-size:24px;fill:rgb(199,179,117);">F<tspan x="618.532px 627.204px 639.731px " y="525.909px 525.909px 525.909px ">réq</tspan>uence (en Hz)</text>
        </g>
        <g transform="matrix(6.12323e-17,-1,1,6.12323e-17,-497.231,851.693)">
            <text x="686.876px" y="562.365px" style="font-family:'ConvectionMedium', 'Convection Medium', sans-serif;font-size:24px;fill:rgb(199,179,117);">Puis<tspan x="729.895px 740.958px 753.509px " y="562.365px 562.365px 562.365px ">san</tspan>ce</text>
        </g>
        <g transform="matrix(0.406249,0,0,1,106.972,8.72801)">
            <rect x="122.675" y="459.361" width="17.067" height="49.989" style="fill:rgb(139,135,207);"/>
        </g>
        <g transform="matrix(0.406249,0,0,1,106.972,8.72801)">
            <rect x="122.675" y="459.361" width="17.067" height="49.989" style="fill:rgb(139,135,207);"/>
        </g>
        <g transform="matrix(0.406249,0,0,1,206.838,8.72801)">
            <rect x="122.675" y="459.361" width="17.067" height="49.989" style="fill:rgb(139,135,207);"/>
        </g>
        <g transform="matrix(0.406249,0,0,1,312.225,9.15467)">
            <rect x="122.675" y="459.361" width="17.067" height="49.989" style="fill:rgb(139,135,207);"/>
        </g>
        <g transform="matrix(1,0,0,1,8.77333,4.69334)">
            <text x="124.197px" y="534.637px" style="font-family:'ConvectionMedium', 'Convection Medium', sans-serif;font-size:24px;fill:rgb(199,179,117);">1 kHz</text>
        </g>
        <g transform="matrix(1,0,0,1,108.64,4.69334)">
            <g>
                <text x="139.232px" y="534.637px" style="font-family:'ConvectionMedium', 'Convection Medium', sans-serif;font-size:24px;fill:rgb(199,179,117);">10</text>
                <text x="136.097px" y="558.637px" style="font-family:'ConvectionMedium', 'Convection Medium', sans-serif;font-size:24px;fill:rgb(199,179,117);">kHz</text>
            </g>
        </g>
        <g transform="matrix(1,0,0,1,214.027,5.12)">
            <g>
                <text x="133.097px" y="534.637px" style="font-family:'ConvectionMedium', 'Convection Medium', sans-serif;font-size:24px;fill:rgb(199,179,117);">100</text>
                <text x="136.097px" y="558.637px" style="font-family:'ConvectionMedium', 'Convection Medium', sans-serif;font-size:24px;fill:rgb(199,179,117);">kHz</text>
            </g>
        </g>
        <g transform="matrix(1.40028,0,0,1,-304.609,-6)">
            <rect x="279.322" y="113.884" width="481.667" height="380.2" style="fill:rgb(165,135,207);"/>
        </g>
        <g transform="matrix(1,0,0,1,-91.755,1.2609)">
            <path d="M425.009,272.723C425.009,269.743 424.733,267.275 424.181,265.316C423.629,263.358 422.822,261.806 421.759,260.66C420.697,259.514 419.374,258.712 417.79,258.254C416.207,257.796 414.384,257.566 412.322,257.566L404.509,257.566L404.509,290.473L412.384,290.473C414.426,290.473 416.233,290.191 417.806,289.629C419.379,289.066 420.697,288.103 421.759,286.738C422.822,285.374 423.629,283.556 424.181,281.285C424.733,279.014 425.009,276.16 425.009,272.723ZM431.384,272.816C431.384,276.879 430.952,280.379 430.087,283.316C429.223,286.254 427.973,288.665 426.337,290.551C424.702,292.436 422.707,293.832 420.353,294.738C417.999,295.644 415.322,296.098 412.322,296.098L398.259,296.098L398.259,251.941L412.509,251.941C415.447,251.941 418.082,252.301 420.415,253.019C422.749,253.738 424.728,254.915 426.353,256.551C427.978,258.186 429.223,260.332 430.087,262.988C430.952,265.644 431.384,268.921 431.384,272.816Z" style="fill:rgb(199,179,117);fill-rule:nonzero;"/>
            <path d="M444.822,283.348C444.822,284.598 444.91,285.728 445.087,286.738C445.264,287.749 445.577,288.603 446.025,289.301C446.473,289.999 447.072,290.54 447.822,290.926C448.572,291.311 449.52,291.504 450.665,291.504L453.478,291.504C454.603,291.504 455.54,291.311 456.29,290.926C457.04,290.54 457.639,289.999 458.087,289.301C458.535,288.603 458.848,287.749 459.025,286.738C459.202,285.728 459.29,284.598 459.29,283.348L459.29,276.566C459.29,275.316 459.202,274.191 459.025,273.191C458.848,272.191 458.535,271.342 458.087,270.644C457.639,269.947 457.04,269.405 456.29,269.019C455.54,268.634 454.603,268.441 453.478,268.441L450.665,268.441C449.52,268.441 448.572,268.634 447.822,269.019C447.072,269.405 446.473,269.947 446.025,270.644C445.577,271.342 445.264,272.191 445.087,273.191C444.91,274.191 444.822,275.316 444.822,276.566L444.822,283.348ZM465.509,283.629C465.509,286.004 465.233,288.019 464.681,289.676C464.129,291.332 463.322,292.681 462.259,293.723C461.197,294.764 459.9,295.525 458.368,296.004C456.837,296.483 455.103,296.723 453.165,296.723L450.853,296.723C448.895,296.723 447.16,296.483 445.65,296.004C444.139,295.525 442.863,294.764 441.822,293.723C440.78,292.681 439.988,291.332 439.447,289.676C438.905,288.019 438.634,286.004 438.634,283.629L438.634,276.316C438.634,273.941 438.905,271.926 439.447,270.269C439.988,268.613 440.78,267.259 441.822,266.207C442.863,265.155 444.139,264.389 445.65,263.91C447.16,263.431 448.895,263.191 450.853,263.191L453.165,263.191C455.103,263.191 456.837,263.431 458.368,263.91C459.9,264.389 461.197,265.155 462.259,266.207C463.322,267.259 464.129,268.613 464.681,270.269C465.233,271.926 465.509,273.941 465.509,276.316L465.509,283.629Z" style="fill:rgb(199,179,117);fill-rule:nonzero;"/>
            <path d="M479.697,296.098L473.478,296.098L473.478,264.473C474.332,264.306 475.28,264.144 476.322,263.988C477.363,263.832 478.447,263.697 479.572,263.582C480.697,263.467 481.827,263.374 482.962,263.301C484.098,263.228 485.186,263.191 486.228,263.191C488.624,263.191 490.681,263.431 492.4,263.91C494.118,264.389 495.53,265.066 496.634,265.941C497.738,266.816 498.551,267.868 499.072,269.098C499.592,270.327 499.853,271.691 499.853,273.191L499.853,296.098L493.634,296.098L493.634,274.473C493.634,272.577 492.978,271.098 491.665,270.035C490.353,268.973 488.54,268.441 486.228,268.441C485.645,268.441 485.035,268.462 484.4,268.504C483.764,268.546 483.15,268.608 482.556,268.691C481.962,268.775 481.415,268.858 480.915,268.941C480.415,269.025 480.009,269.118 479.697,269.223L479.697,296.098Z" style="fill:rgb(199,179,117);fill-rule:nonzero;"/>
            <path d="M514.697,296.098L508.478,296.098L508.478,264.473C509.332,264.306 510.28,264.144 511.322,263.988C512.363,263.832 513.447,263.697 514.572,263.582C515.697,263.467 516.827,263.374 517.962,263.301C519.098,263.228 520.186,263.191 521.228,263.191C523.624,263.191 525.681,263.431 527.4,263.91C529.118,264.389 530.53,265.066 531.634,265.941C532.738,266.816 533.551,267.868 534.072,269.098C534.592,270.327 534.853,271.691 534.853,273.191L534.853,296.098L528.634,296.098L528.634,274.473C528.634,272.577 527.978,271.098 526.665,270.035C525.353,268.973 523.54,268.441 521.228,268.441C520.645,268.441 520.035,268.462 519.4,268.504C518.764,268.546 518.15,268.608 517.556,268.691C516.962,268.775 516.415,268.858 515.915,268.941C515.415,269.025 515.009,269.118 514.697,269.223L514.697,296.098Z" style="fill:rgb(199,179,117);fill-rule:nonzero;"/>
            <path d="M569.165,281.254L548.728,281.254L548.728,282.785C548.728,284.348 548.884,285.681 549.197,286.785C549.509,287.889 549.978,288.79 550.603,289.488C551.228,290.186 551.993,290.697 552.9,291.019C553.806,291.342 554.853,291.504 556.04,291.504C557.311,291.504 558.53,291.358 559.697,291.066C560.863,290.775 561.957,290.41 562.978,289.973C563.999,289.535 564.936,289.051 565.79,288.519C566.645,287.988 567.384,287.483 568.009,287.004L568.009,292.973C567.363,293.493 566.624,293.983 565.79,294.441C564.957,294.9 564.035,295.296 563.025,295.629C562.014,295.962 560.921,296.228 559.743,296.426C558.566,296.624 557.311,296.723 555.978,296.723C553.957,296.723 552.124,296.473 550.478,295.973C548.832,295.473 547.421,294.686 546.243,293.613C545.066,292.54 544.155,291.16 543.509,289.473C542.863,287.785 542.54,285.764 542.54,283.41L542.54,276.973C542.54,274.723 542.848,272.743 543.462,271.035C544.077,269.327 544.947,267.889 546.072,266.723C547.197,265.556 548.561,264.676 550.165,264.082C551.77,263.488 553.551,263.191 555.509,263.191L556.228,263.191C558.04,263.191 559.733,263.452 561.306,263.973C562.879,264.493 564.249,265.296 565.415,266.379C566.582,267.462 567.499,268.832 568.165,270.488C568.832,272.144 569.165,274.108 569.165,276.379L569.165,281.254ZM548.728,276.191L562.947,276.191C562.947,273.441 562.353,271.441 561.165,270.191C559.978,268.941 558.27,268.316 556.04,268.316L555.79,268.316C554.811,268.316 553.9,268.452 553.056,268.723C552.212,268.993 551.473,269.441 550.837,270.066C550.202,270.691 549.702,271.504 549.337,272.504C548.973,273.504 548.77,274.733 548.728,276.191ZM558.692,251.287L566.3,251.287L566.3,251.752L556.537,260.441L551.378,260.441L551.378,260.131L558.692,251.287Z" style="fill:rgb(199,179,117);fill-rule:nonzero;"/>
            <path d="M602.572,281.254L582.134,281.254L582.134,282.785C582.134,284.348 582.29,285.681 582.603,286.785C582.915,287.889 583.384,288.79 584.009,289.488C584.634,290.186 585.4,290.697 586.306,291.019C587.212,291.342 588.259,291.504 589.447,291.504C590.717,291.504 591.936,291.358 593.103,291.066C594.27,290.775 595.363,290.41 596.384,289.973C597.405,289.535 598.342,289.051 599.197,288.519C600.051,287.988 600.79,287.483 601.415,287.004L601.415,292.973C600.77,293.493 600.03,293.983 599.197,294.441C598.363,294.9 597.441,295.296 596.431,295.629C595.421,295.962 594.327,296.228 593.15,296.426C591.973,296.624 590.717,296.723 589.384,296.723C587.363,296.723 585.53,296.473 583.884,295.973C582.238,295.473 580.827,294.686 579.65,293.613C578.473,292.54 577.561,291.16 576.915,289.473C576.27,287.785 575.947,285.764 575.947,283.41L575.947,276.973C575.947,274.723 576.254,272.743 576.868,271.035C577.483,269.327 578.353,267.889 579.478,266.723C580.603,265.556 581.967,264.676 583.572,264.082C585.176,263.488 586.957,263.191 588.915,263.191L589.634,263.191C591.447,263.191 593.139,263.452 594.712,263.973C596.285,264.493 597.655,265.296 598.822,266.379C599.988,267.462 600.905,268.832 601.572,270.488C602.238,272.144 602.572,274.108 602.572,276.379L602.572,281.254ZM582.134,276.191L596.353,276.191C596.353,273.441 595.759,271.441 594.572,270.191C593.384,268.941 591.676,268.316 589.447,268.316L589.197,268.316C588.217,268.316 587.306,268.452 586.462,268.723C585.618,268.993 584.879,269.441 584.243,270.066C583.608,270.691 583.108,271.504 582.743,272.504C582.379,273.504 582.176,274.733 582.134,276.191Z" style="fill:rgb(199,179,117);fill-rule:nonzero;"/>
            <path d="M632.759,287.254C632.759,288.816 632.53,290.186 632.072,291.363C631.613,292.54 630.874,293.525 629.853,294.316C628.832,295.108 627.499,295.707 625.853,296.113C624.207,296.519 622.197,296.723 619.822,296.723C617.363,296.723 615.191,296.452 613.306,295.91C611.421,295.368 609.863,294.535 608.634,293.41L608.634,287.316C609.238,287.9 609.941,288.441 610.743,288.941C611.546,289.441 612.426,289.874 613.384,290.238C614.342,290.603 615.368,290.889 616.462,291.098C617.556,291.306 618.697,291.41 619.884,291.41C621.134,291.41 622.186,291.332 623.04,291.176C623.895,291.019 624.577,290.769 625.087,290.426C625.598,290.082 625.967,289.65 626.197,289.129C626.426,288.608 626.54,287.983 626.54,287.254C626.54,286.358 626.29,285.634 625.79,285.082C625.29,284.53 624.634,284.066 623.822,283.691C623.009,283.316 622.082,282.988 621.04,282.707C619.999,282.426 618.931,282.124 617.837,281.801C616.743,281.478 615.676,281.087 614.634,280.629C613.592,280.171 612.665,279.572 611.853,278.832C611.04,278.092 610.384,277.171 609.884,276.066C609.384,274.962 609.134,273.598 609.134,271.973C609.134,270.41 609.389,269.077 609.9,267.973C610.41,266.868 611.129,265.962 612.056,265.254C612.983,264.546 614.103,264.025 615.415,263.691C616.728,263.358 618.197,263.191 619.822,263.191L621.54,263.191C622.915,263.191 624.155,263.327 625.259,263.598C626.363,263.868 627.358,264.249 628.243,264.738C629.129,265.228 629.91,265.816 630.587,266.504C631.264,267.191 631.863,267.952 632.384,268.785L627.572,272.348C627.259,271.848 626.905,271.368 626.509,270.91C626.113,270.452 625.671,270.046 625.181,269.691C624.691,269.337 624.139,269.051 623.525,268.832C622.91,268.613 622.228,268.504 621.478,268.504L619.884,268.504C616.863,268.504 615.353,269.66 615.353,271.973C615.353,272.889 615.603,273.629 616.103,274.191C616.603,274.754 617.259,275.223 618.072,275.598C618.884,275.973 619.811,276.29 620.853,276.551C621.895,276.811 622.962,277.098 624.056,277.41C625.15,277.723 626.217,278.103 627.259,278.551C628.301,278.999 629.228,279.592 630.04,280.332C630.853,281.072 631.509,281.999 632.009,283.113C632.509,284.228 632.759,285.608 632.759,287.254Z" style="fill:rgb(199,179,117);fill-rule:nonzero;"/>
        </g>
    </g>
</svg>
